<svg width="29" height="29" viewBox="0 0 29 29" fill="none" xmlns="http://www.w3.org/2000/svg">
<path d="M20.0234 26.5833C20.3443 26.5851 20.6624 26.523 20.9591 26.4006C21.2558 26.2782 21.5251 26.098 21.7513 25.8703L25.0259 22.5958C25.251 22.3694 25.3773 22.0631 25.3773 21.7439C25.3773 21.4247 25.251 21.1184 25.0259 20.892L20.1926 16.0587C19.9662 15.8336 19.6599 15.7073 19.3407 15.7073C19.0215 15.7073 18.7152 15.8336 18.4888 16.0587L16.5555 17.9799C15.217 17.623 13.9773 16.966 12.9305 16.0587C12.0256 15.0102 11.3689 13.7711 11.0093 12.4337L12.9305 10.5003C13.1556 10.2739 13.2819 9.96769 13.2819 9.64847C13.2819 9.32924 13.1556 9.02299 12.9305 8.79659L8.09718 3.96326C7.87078 3.73821 7.56452 3.61189 7.2453 3.61189C6.92608 3.61189 6.61982 3.73821 6.39343 3.96326L3.13093 7.24993C2.90331 7.47618 2.72305 7.7455 2.60064 8.04217C2.47824 8.33884 2.41616 8.65692 2.41801 8.97784C2.52763 13.6206 4.38285 18.0516 7.61384 21.3874C10.9497 24.6184 15.3807 26.4736 20.0234 26.5833ZM7.25134 6.53701L10.3809 9.66659L8.82218 11.2253C8.67454 11.3636 8.56399 11.5368 8.50065 11.7289C8.43732 11.921 8.42323 12.1259 8.45968 12.3249C8.91131 14.3433 9.86752 16.2141 11.2388 17.7624C12.7859 19.1355 14.6573 20.092 16.6763 20.5416C16.8723 20.5826 17.0754 20.5742 17.2673 20.5172C17.4592 20.4603 17.634 20.3566 17.7759 20.2153L19.3347 18.6203L22.4643 21.7499L20.0476 24.1666C16.0404 24.0634 12.217 22.4642 9.32968 19.6837C6.54194 16.7952 4.93812 12.9667 4.83468 8.95368L7.25134 6.53701ZM24.168 13.2916H26.5847C26.616 11.8549 26.3561 10.4267 25.8207 9.09313C25.2853 7.75955 24.4854 6.54818 23.4692 5.53203C22.4531 4.51588 21.2417 3.71599 19.9081 3.18057C18.5746 2.64514 17.1464 2.38526 15.7097 2.41659V4.83326C16.8309 4.79448 17.9481 4.98673 18.9919 5.39808C20.0356 5.80942 20.9836 6.43106 21.7769 7.22436C22.5702 8.01765 23.1918 8.96565 23.6032 10.0094C24.0145 11.0532 24.2068 12.1704 24.168 13.2916Z" fill="black"/>
<path d="M15.707 9.66667C18.2445 9.66667 19.332 10.7542 19.332 13.2917H21.7487C21.7487 9.40083 19.5979 7.25 15.707 7.25V9.66667Z" fill="black"/>
</svg>
