<svg width="39" height="38" viewBox="0 0 39 38" fill="none" xmlns="http://www.w3.org/2000/svg">
<path d="M15.25 28.4444L13.8333 34.1111L11.9444 36H27.0556L25.1667 34.1111L23.75 28.4444H15.25ZM2.5 20.8889H36.5H2.5ZM6.27778 28.4444H32.7222C33.7242 28.4444 34.685 28.0464 35.3935 27.338C36.102 26.6295 36.5 25.6686 36.5 24.6667V5.77778C36.5 4.77585 36.102 3.81496 35.3935 3.10649C34.685 2.39801 33.7242 2 32.7222 2H6.27778C5.27585 2 4.31496 2.39801 3.60649 3.10649C2.89801 3.81496 2.5 4.77585 2.5 5.77778V24.6667C2.5 25.6686 2.89801 26.6295 3.60649 27.338C4.31496 28.0464 5.27585 28.4444 6.27778 28.4444Z" stroke="#8F9397" stroke-width="3.75" stroke-linecap="round" stroke-linejoin="round"/>
</svg>
