<svg width="36" height="36" viewBox="0 0 36 36" fill="none" xmlns="http://www.w3.org/2000/svg">
<path d="M21 12H7C6.73478 12 6.48043 11.8946 6.29289 11.7071C6.10536 11.5196 6 11.2652 6 11V7C6 6.73478 6.10536 6.48043 6.29289 6.29289C6.48043 6.10536 6.73478 6 7 6H21C21.2652 6 21.5196 6.10536 21.7071 6.29289C21.8946 6.48043 22 6.73478 22 7V11C22 11.2652 21.8946 11.5196 21.7071 11.7071C21.5196 11.8946 21.2652 12 21 12ZM8 10H20V7.94H8V10Z" fill="black"/>
<path d="M21 14.0801H7C6.73478 14.0801 6.48043 14.1854 6.29289 14.373C6.10536 14.5605 6 14.8149 6 15.0801V19.0001C6 19.2653 6.10536 19.5196 6.29289 19.7072C6.48043 19.8947 6.73478 20.0001 7 20.0001H18.36L22 16.3001V15.0801C22 14.8149 21.8946 14.5605 21.7071 14.373C21.5196 14.1854 21.2652 14.0801 21 14.0801ZM20 18.0001H8V16.0001H20V18.0001Z" fill="black"/>
<path d="M11.06 31.51V31.45L11.38 30.06H4V4H24V14.25L26 12.36V3C26 2.73478 25.8946 2.48043 25.7071 2.29289C25.5196 2.10536 25.2652 2 25 2H3C2.73478 2 2.48043 2.10536 2.29289 2.29289C2.10536 2.48043 2 2.73478 2 3V31C2 31.2652 2.10536 31.5196 2.29289 31.7071C2.48043 31.8946 2.73478 32 3 32H11C11.0082 31.8354 11.0283 31.6717 11.06 31.51Z" fill="black"/>
<path d="M21.9988 19.1699L21.2188 19.9599C21.4123 19.92 21.5896 19.8237 21.7284 19.6831C21.8673 19.5425 21.9613 19.3639 21.9988 19.1699Z" fill="black"/>
<path d="M6 26.94C6 27.2052 6.10536 27.4596 6.29289 27.6471C6.48043 27.8346 6.73478 27.94 7 27.94H11.84L12.14 26.64L12.27 26.09V26.04H8V24H14.34L16.34 22H7C6.73478 22 6.48043 22.1054 6.29289 22.2929C6.10536 22.4804 6 22.7348 6 23V26.94Z" fill="black"/>
<path d="M33.4893 16.6698L30.1192 13.2998C29.9697 13.1498 29.792 13.0308 29.5964 12.9496C29.4008 12.8685 29.191 12.8267 28.9792 12.8267C28.7674 12.8267 28.5577 12.8685 28.3621 12.9496C28.1665 13.0308 27.9888 13.1498 27.8392 13.2998L14.1292 27.0898L12.9992 31.8998C12.9569 32.1073 12.956 32.3211 12.9965 32.529C13.0369 32.7369 13.118 32.9347 13.235 33.1112C13.3521 33.2877 13.5028 33.4394 13.6785 33.5575C13.8543 33.6757 14.0516 33.758 14.2592 33.7998C14.3623 33.8101 14.4662 33.8101 14.5692 33.7998C14.6918 33.8197 14.8167 33.8197 14.9392 33.7998L19.7893 32.7298L33.4893 18.9998C33.6389 18.8511 33.7577 18.6742 33.8387 18.4794C33.9198 18.2847 33.9615 18.0758 33.9615 17.8648C33.9615 17.6538 33.9198 17.4449 33.8387 17.2501C33.7577 17.0553 33.6389 16.8785 33.4893 16.7298V16.6698ZM18.7692 30.9098L15.1092 31.7198L15.9992 28.0898L26.2793 17.6998L29.0992 20.5198L18.7692 30.9098ZM30.2292 19.3898L27.4092 16.5698L28.9992 14.9998L31.8392 17.8398L30.2292 19.3898Z" fill="black"/>
</svg>
