<?xml version="1.0" encoding="utf-8"?>
<!-- Generator: Adobe Illustrator 27.5.0, SVG Export Plug-In . SVG Version: 6.00 Build 0)  -->
<svg version="1.1" xmlns="http://www.w3.org/2000/svg" xmlns:xlink="http://www.w3.org/1999/xlink" x="0px" y="0px"
	 viewBox="0 0 500 500" style="enable-background:new 0 0 500 500;" xml:space="preserve">
<g id="BACKGROUND">
	<rect style="fill:#FFFFFF;" width="500" height="500"/>
</g>
<g id="OBJECTS">
	<g>
		<path style="fill:#D1CFCB;" d="M320.646,442.253c0,3.174-31.112,5.747-69.489,5.747c-38.378,0-69.489-2.573-69.489-5.747
			c0-3.174,31.112-5.748,69.489-5.748C289.535,436.505,320.646,439.078,320.646,442.253z"/>
		<g>
			<g id="XMLID_431_">
				<path id="XMLID_432_" style="fill:#61210C;" d="M300.57,432.87c-2.104-0.956-4.876-2.104-7.851-3.287
					c-8.952-3.564-18.798-17.011-18.798-17.011H260.12c0,0-4.557,18.211-4.51,25.926c-0.017,2.993,0.91,5.1,3.562,5.1
					c2.056,0,5.089-0.029,8.638-0.075c2.268-0.03,1.452-4.141,4.022-4.182c0.724-0.011,4.751,4.051,5.487,4.039
					c13.534-0.225,28.618-0.541,28.618-0.541S309.004,436.703,300.57,432.87z"/>
			</g>
			<g id="XMLID_429_">
				<path id="XMLID_430_" style="fill:#61210C;" d="M201.408,432.87c2.104-0.956,4.876-2.104,7.851-3.287
					c8.952-3.564,18.799-17.011,18.799-17.011h13.801c0,0,4.557,18.211,4.51,25.926c0.017,2.993-0.909,5.1-3.561,5.1
					c-2.056,0-5.089-0.029-8.639-0.076c-2.268-0.03-1.452-4.141-4.022-4.182c-0.724-0.012-4.751,4.051-5.487,4.039
					c-13.534-0.225-28.619-0.541-28.619-0.541S192.973,436.703,201.408,432.87z"/>
			</g>
			<path id="XMLID_428_" style="fill:#351006;" d="M273.76,254.689c-4.195-0.335-41.79-0.398-46.769,0l-3.529,6.223
				c-9.767,1.406-6.957,145.755-4.998,159.32c1.664,3.931,25.61,4.087,27.905,0.501c1.84-2.875,2.489-45.489,1.135-56.951
				c-0.889-7.52-0.748-65.537,2.786-66.252c1.9-0.384,3.903,58.262,2.959,66.252c-1.354,11.461,3.457,49.943,3.443,54.568
				c-0.01,3.431,1.673,0.337,3.512,3.212c2.295,3.587,22.361,2.601,24.025-1.33c1.959-13.564,4.122-157.913-6.94-159.32
				L273.76,254.689z"/>
			<path style="fill:#230904;" d="M281.311,269.749c-1.09-5.397-2.416-8.632-4.023-8.837l-3.529-6.223
				c-4.195-0.335-41.79-0.398-46.769,0l-3.529,6.223c-1.419,0.204-2.571,3.44-3.5,8.837H281.311z"/>
		</g>
		<g>
			<g>
				<g id="XMLID_420_">
					<g id="XMLID_421_">
						<g id="XMLID_422_">
							<g id="XMLID_423_">
								<g id="XMLID_424_">
									<path id="XMLID_425_" style="fill:#F6CFB7;" d="M243.303,124.397l15.362-0.167c0,0,0.852,24.049,0.908,24.049l-3.237,4.165
										c-2.404,3.093-7.04,3.205-9.589,0.23l-3.616-4.219C243.186,148.321,243.303,124.397,243.303,124.397z"/>
									<path style="fill:#E7B69C;" d="M259.206,139.188c-0.187-5.157-0.33-9.263-0.33-9.263l-15.621-0.065
										c-0.02,0.657,0.013,6.674,0,9.042c0.595,1.196,2.761,4.538,8.363,4.392C256.237,143.171,258.408,140.624,259.206,139.188z"
										/>
								</g>
							</g>
						</g>
					</g>
				</g>
			</g>
			<g>
				<g id="XMLID_414_">
					<path id="XMLID_417_" style="fill:#F6CFB7;" d="M223.005,99.474c0,0-6.023-7.448-11.566-2.553
						c-5.544,4.895,2.38,19.98,12.997,16.433L223.005,99.474z"/>
					<path id="XMLID_416_" style="fill:#E7B69C;" d="M223.547,104.735l0.738,7.145c-9.182,1.588-14.424-10.728-10.2-12.436
						C217.501,98.063,221.741,102.384,223.547,104.735z"/>
					<path id="XMLID_415_" style="fill:#E7B69C;" d="M212.607,101.994c0,0,0.018-0.055,0.045-0.157
						c0.028-0.103,0.079-0.248,0.139-0.429c0.137-0.353,0.373-0.867,0.823-1.234c0.113-0.093,0.244-0.166,0.377-0.229
						c0.071-0.029,0.138-0.06,0.218-0.084l0.051-0.019l0.004-0.001c-0.04,0.015-0.009,0.004-0.016,0.007l0.007-0.003l0.021-0.004
						l0.034-0.009l0.146-0.037c0.104-0.031,0.183-0.041,0.26-0.053c0.076-0.013,0.162-0.023,0.258-0.029
						c0.088-0.008,0.18-0.013,0.268-0.01c0.096-0.001,0.187-0.005,0.283,0.008c0.753,0.051,1.55,0.334,2.311,0.727
						c0.386,0.192,0.755,0.421,1.119,0.653c0.358,0.237,0.711,0.481,1.045,0.727c0.669,0.498,1.276,0.998,1.801,1.429
						c1.048,0.892,1.744,1.487,1.744,1.487s-0.09-0.211-0.285-0.561c-0.2-0.349-0.5-0.838-0.916-1.388
						c-0.212-0.273-0.444-0.571-0.713-0.866c-0.268-0.297-0.565-0.603-0.889-0.901c-0.655-0.595-1.42-1.182-2.3-1.635
						c-0.443-0.223-0.909-0.418-1.398-0.549c-0.49-0.133-1.004-0.203-1.506-0.185c-0.125,0.002-0.247,0.014-0.373,0.029
						c-0.123,0.008-0.243,0.034-0.362,0.06c-0.116,0.021-0.236,0.054-0.357,0.094c-0.122,0.038-0.238,0.075-0.319,0.117
						l-0.139,0.063l-0.087,0.038l-0.078,0.042c-0.105,0.051-0.198,0.114-0.29,0.179c-0.176,0.136-0.331,0.284-0.453,0.44
						c-0.253,0.309-0.378,0.639-0.45,0.923c-0.075,0.283-0.084,0.534-0.087,0.735c0,0.201,0.022,0.36,0.037,0.465
						C212.598,101.939,212.607,101.994,212.607,101.994z"/>
				</g>
				<g id="XMLID_402_">
					<path id="XMLID_413_" style="fill:#F6CFB7;" d="M278.842,98.894c0,0,5.854-7.57,11.504-2.791
						c5.655,4.777-1.932,20.024-12.626,16.699L278.842,98.894z"/>
					<path id="XMLID_412_" style="fill:#E7B69C;" d="M278.417,104.166l-0.577,7.157c9.214,1.399,14.179-11.023,9.917-12.643
						C284.313,97.371,280.169,101.778,278.417,104.166z"/>
					<path id="XMLID_403_" style="fill:#E7B69C;" d="M289.292,101.199c0,0-0.016-0.053-0.048-0.156
						c-0.031-0.103-0.082-0.246-0.149-0.427c-0.142-0.352-0.389-0.86-0.852-1.218c-0.111-0.089-0.24-0.16-0.382-0.221
						c-0.071-0.025-0.139-0.058-0.213-0.077l-0.059-0.017l-0.002-0.001c0.043,0.015,0.008,0.001,0.016,0.004h-0.008l-0.018-0.005
						l-0.036-0.009l-0.147-0.034c-0.102-0.029-0.185-0.036-0.263-0.047c-0.076-0.014-0.161-0.022-0.257-0.025
						c-0.089-0.006-0.179-0.008-0.27-0.004c-0.092,0.001-0.184,0.002-0.279,0.015c-0.751,0.064-1.547,0.365-2.298,0.774
						c-0.378,0.201-0.745,0.436-1.103,0.678c-0.352,0.244-0.701,0.494-1.029,0.75c-0.657,0.511-1.252,1.022-1.769,1.464
						c-1.026,0.914-1.71,1.523-1.71,1.523s0.087-0.214,0.275-0.566c0.185-0.351,0.477-0.85,0.885-1.408
						c0.204-0.276,0.43-0.579,0.693-0.88c0.262-0.303,0.548-0.613,0.868-0.92c0.639-0.607,1.39-1.21,2.261-1.683
						c0.435-0.231,0.902-0.435,1.389-0.577c0.485-0.143,0.996-0.223,1.497-0.216c0.128-0.001,0.251,0.01,0.375,0.022
						c0.124,0.005,0.242,0.026,0.364,0.052c0.116,0.018,0.235,0.048,0.358,0.087c0.122,0.034,0.239,0.07,0.323,0.111l0.137,0.056
						l0.088,0.037l0.08,0.04c0.106,0.049,0.203,0.111,0.297,0.174c0.177,0.132,0.335,0.275,0.463,0.429
						c0.258,0.305,0.39,0.633,0.467,0.913c0.083,0.283,0.098,0.534,0.103,0.736c0.005,0.202-0.014,0.36-0.026,0.465
						C289.301,101.143,289.292,101.199,289.292,101.199z"/>
				</g>
			</g>
			<path id="XMLID_401_" style="fill:#F6CFB7;" d="M219.176,93.057c0.251-10.119,4.661-19.717,14.993-23.75
				c5.255-2.053,11.042-2.645,16.69-2.615c5.578,0.029,11.524,0.316,16.788,2.208c9.432,3.392,8.12,8.088,9.179,17.316
				c0.106,0.905,6.459,5.267,6.501,6.176c0.1,2.083,0.289,4.133,0.233,6.226c-0.128,4.704-0.854,9.428-2.395,13.91
				c-1.871,5.438-5.039,10.497-9.688,14.216c-2.639,2.114-5.689,3.741-8.928,4.88c-5.347,1.877-10.451,2.533-16.076,1.595
				c-3.811-0.635-7.534-1.794-10.894-3.614c-5.576-3.017-9.781-7.753-12.434-13.252c-2.228-4.628-3.421-9.675-3.895-14.728
				c-0.259-2.767-0.346-5.579-0.096-8.347C219.162,93.203,219.173,93.131,219.176,93.057z"/>
			<g>
				<path id="XMLID_398_" style="fill:#FFFFFF;" d="M259.939,116.448c0,0-12.044,1.929-17.766-4.717c0,0-4.811,12.418,8.119,14.011
					C258.46,126.745,259.939,116.448,259.939,116.448z"/>
				<g id="XMLID_394_">
					<path id="XMLID_395_" style="fill:#F05B4E;" d="M250.207,126.355c-3.868-0.475-6.612-1.942-8.158-4.352
						c-2.802-4.381-0.587-10.239-0.493-10.484c0.083-0.211,0.275-0.363,0.508-0.399c0.234-0.039,0.466,0.048,0.615,0.219
						c5.41,6.286,17.033,4.516,17.15,4.5c0.208-0.035,0.414,0.028,0.565,0.166c0.149,0.136,0.22,0.333,0.191,0.526
						c-0.012,0.105-1.5,9.818-9.095,9.897C251.079,126.432,250.655,126.409,250.207,126.355z M242.468,112.97
						c-0.474,1.784-1.13,5.536,0.706,8.395c1.33,2.07,3.752,3.337,7.2,3.759c6.222,0.767,8.237-5.624,8.759-7.947
						C256.296,117.474,247.642,117.914,242.468,112.97z"/>
				</g>
			</g>
			<g>
				<path id="XMLID_392_" style="fill:#E7B69C;" d="M272.657,119.096c0,0,0.014-0.227-0.038-0.621
					c-0.032-0.195-0.062-0.44-0.138-0.706c-0.062-0.272-0.157-0.569-0.279-0.893c-0.12-0.321-0.273-0.665-0.454-1.014
					c-0.19-0.349-0.392-0.72-0.651-1.073c-0.235-0.366-0.525-0.713-0.827-1.064c-0.296-0.356-0.653-0.666-0.983-1.001
					c-0.361-0.301-0.726-0.602-1.098-0.878c-0.382-0.26-0.769-0.507-1.143-0.732c-0.394-0.207-0.778-0.396-1.14-0.569
					c-0.37-0.171-0.738-0.284-1.066-0.405c-0.333-0.11-0.636-0.218-0.922-0.271c-0.278-0.063-0.527-0.108-0.729-0.146
					c-0.4-0.074-0.636-0.098-0.636-0.098s0.187,0.151,0.515,0.382c0.165,0.116,0.362,0.257,0.593,0.408
					c0.231,0.14,0.477,0.33,0.753,0.525c0.268,0.198,0.576,0.381,0.875,0.61c0.302,0.229,0.616,0.462,0.95,0.696
					c0.317,0.254,0.636,0.518,0.977,0.774c0.318,0.273,0.641,0.549,0.965,0.83c0.156,0.147,0.31,0.293,0.464,0.436
					c0.156,0.147,0.318,0.282,0.457,0.436c0.144,0.152,0.293,0.298,0.439,0.442c0.15,0.142,0.272,0.3,0.412,0.445
					c0.278,0.289,0.523,0.586,0.768,0.866c0.126,0.136,0.225,0.284,0.337,0.415c0.111,0.138,0.222,0.265,0.315,0.398
					c0.199,0.257,0.382,0.497,0.536,0.713c0.164,0.218,0.291,0.414,0.408,0.576c0.099,0.162,0.198,0.289,0.249,0.379
					C272.625,119.049,272.657,119.096,272.657,119.096z"/>
				<path id="XMLID_391_" style="fill:#E7B69C;" d="M231.014,115.463c0,0-0.014-0.227,0.038-0.621
					c0.031-0.194,0.061-0.44,0.138-0.705c0.062-0.272,0.157-0.569,0.279-0.893c0.12-0.321,0.273-0.666,0.454-1.015
					c0.19-0.348,0.392-0.72,0.651-1.073c0.236-0.366,0.525-0.713,0.828-1.063c0.296-0.356,0.652-0.666,0.982-1.001
					c0.361-0.302,0.726-0.602,1.098-0.878c0.382-0.259,0.769-0.507,1.143-0.732c0.394-0.208,0.777-0.396,1.141-0.57
					c0.37-0.171,0.737-0.284,1.066-0.404c0.333-0.111,0.636-0.218,0.922-0.271c0.279-0.063,0.527-0.108,0.729-0.147
					c0.4-0.074,0.636-0.098,0.636-0.098s-0.187,0.151-0.515,0.381c-0.165,0.116-0.361,0.257-0.594,0.408
					c-0.231,0.14-0.477,0.33-0.753,0.526c-0.268,0.198-0.575,0.381-0.874,0.61c-0.302,0.229-0.617,0.462-0.949,0.697
					c-0.317,0.254-0.636,0.518-0.977,0.774c-0.318,0.273-0.641,0.549-0.965,0.83c-0.156,0.147-0.31,0.293-0.464,0.436
					c-0.156,0.147-0.317,0.282-0.457,0.436c-0.144,0.151-0.293,0.298-0.439,0.442c-0.15,0.142-0.272,0.3-0.412,0.444
					c-0.278,0.288-0.523,0.586-0.768,0.866c-0.126,0.136-0.225,0.284-0.337,0.415c-0.111,0.138-0.223,0.265-0.315,0.398
					c-0.199,0.256-0.382,0.497-0.536,0.713c-0.165,0.218-0.291,0.413-0.408,0.575c-0.099,0.162-0.198,0.289-0.249,0.38
					C231.045,115.415,231.014,115.463,231.014,115.463z"/>
			</g>
			<g>
				<path id="XMLID_393_" style="fill:#3F2E1B;" d="M273.718,91.107c0,0-0.113-0.199-0.374-0.507
					c-0.133-0.149-0.294-0.342-0.505-0.528c-0.202-0.198-0.446-0.402-0.728-0.615c-0.279-0.211-0.598-0.425-0.943-0.629
					c-0.353-0.198-0.729-0.41-1.142-0.577c-0.401-0.19-0.838-0.337-1.287-0.479c-0.447-0.151-0.92-0.232-1.384-0.348
					c-0.471-0.071-0.947-0.14-1.414-0.184c-0.467-0.025-0.931-0.038-1.372-0.037c-0.448,0.025-0.877,0.061-1.281,0.099
					c-0.407,0.044-0.782,0.135-1.126,0.201c-0.344,0.076-0.659,0.14-0.931,0.241c-0.271,0.089-0.507,0.177-0.698,0.248
					c-0.38,0.142-0.593,0.242-0.593,0.242s0.241,0.033,0.647,0.06c0.203,0.014,0.448,0.034,0.728,0.043
					c0.273,0.001,0.587,0.037,0.928,0.062c0.336,0.031,0.698,0.029,1.077,0.071c0.382,0.04,0.777,0.077,1.188,0.106
					c0.409,0.053,0.824,0.114,1.255,0.157c0.42,0.069,0.845,0.139,1.275,0.211c0.213,0.045,0.424,0.09,0.633,0.133
					c0.213,0.045,0.424,0.077,0.628,0.137c0.206,0.054,0.413,0.103,0.616,0.15c0.205,0.044,0.395,0.116,0.594,0.167
					c0.394,0.103,0.766,0.23,1.127,0.342c0.182,0.051,0.347,0.126,0.515,0.18c0.17,0.06,0.335,0.112,0.486,0.176
					c0.31,0.116,0.597,0.226,0.847,0.331c0.259,0.101,0.474,0.202,0.663,0.28c0.173,0.087,0.327,0.144,0.42,0.194
					C273.665,91.083,273.718,91.107,273.718,91.107z"/>
				<path id="XMLID_390_" style="fill:#3F2E1B;" d="M233.244,85.779c0,0,0.15-0.176,0.467-0.431c0.163-0.12,0.355-0.283,0.595-0.43
					c0.239-0.156,0.523-0.312,0.835-0.472c0.314-0.156,0.668-0.305,1.053-0.443c0.387-0.131,0.795-0.271,1.233-0.359
					c0.432-0.116,0.891-0.18,1.357-0.24c0.468-0.067,0.948-0.061,1.426-0.089c0.479,0.014,0.955,0.031,1.424,0.074
					c0.466,0.059,0.923,0.132,1.361,0.213c0.432,0.105,0.846,0.218,1.236,0.329c0.386,0.116,0.738,0.274,1.065,0.402
					c0.324,0.135,0.62,0.257,0.865,0.403c0.251,0.138,0.464,0.268,0.637,0.371c0.351,0.21,0.538,0.346,0.538,0.346
					s-0.242-0.01-0.646-0.056c-0.202-0.023-0.447-0.048-0.723-0.09c-0.272-0.048-0.584-0.072-0.923-0.109
					c-0.334-0.031-0.691-0.096-1.075-0.126c-0.381-0.03-0.776-0.063-1.186-0.11c-0.412-0.021-0.836-0.037-1.263-0.074
					c-0.428-0.008-0.858-0.015-1.295-0.022c-0.216,0.004-0.432,0.01-0.648,0.015c-0.214,0.006-0.429-0.002-0.644,0.022
					c-0.21,0.018-0.421,0.028-0.63,0.036c-0.21,0.006-0.415,0.041-0.616,0.057c-0.409,0.028-0.797,0.087-1.175,0.132
					c-0.189,0.014-0.364,0.06-0.542,0.083c-0.177,0.027-0.351,0.049-0.512,0.083c-0.326,0.06-0.631,0.113-0.897,0.173
					c-0.272,0.053-0.505,0.113-0.699,0.156c-0.191,0.053-0.353,0.083-0.456,0.114C233.302,85.762,233.244,85.779,233.244,85.779z"/>
			</g>
			<path id="XMLID_387_" style="fill:#3F2E1B;" d="M252.753,108.482c-4.61-0.343-9.899,0.083-12.769,2.815
				c-0.552,0.525-7.294,4.212-5.015,6.272c0.805,0.728,5.723-2.618,7.162-2.569c1.439,0.049,2.811-0.417,4.117-0.872
				c-0.48,0.785,6.753-0.686,6.765-1.351c1.398,1.284,5.787,3.033,5.829,2.569c1.261,0.289,2.264,1,3.434,1.456
				c1.17,0.456,5.853,4.189,6.718,3.441c1.173-1.013-3.064-6.154-4.24-7.164c-1.334-1.146-2.734-2.297-4.517-3.021
				c-2.111-0.857-4.687-1.042-6.975-0.501"/>
			<path id="XMLID_386_" style="fill:#F48470;" d="M255.362,97.211c0,0-2.301,5.965,0.83,6.179
				c6.061,0.422,2.959,12.411-4.646,5.834c-2.873-2.481,0.923-12.622,0.923-12.622L255.362,97.211z"/>
			<g>
				<path style="fill:#E7B69C;" d="M228.175,73.516c0,0,21.943-2.506,28.542,0.585c6.6,3.091,20.427,5.808,21.7-0.772
					c1.273-6.58-12.525-9.785-12.915-9.954c-0.39-0.169-30.067,0-30.067,0l-8.625,6.466L228.175,73.516z"/>
				<path style="fill:#35220E;" d="M276.735,62.202c0,0,11.046,9.602,6.637,39.665l-2.49-4.25
					c-4.182-7.137-6.386-15.26-6.386-23.532V63.984L276.735,62.202z"/>
				<path style="fill:#3F2E1B;" d="M218.026,105.799l4.055,8.089c0,0,1.387-19.302,1.466-27.73
					c0.078-8.428,4.628-12.643,4.628-12.643s25.184-4.518,34.975-1.408c38.094,12.101,23.629-20.599,23.629-20.599
					s-7.325,7.749-21.277,0.064c-21.17-11.663-30.954-2.96-39.6,7.288c0,0-15.461,3.988-13.574,27.204
					C212.888,92.947,214.932,99.627,218.026,105.799z"/>
				<path style="fill:#35220E;" d="M232.691,68.921c0,0,6.238-11.584,18.936-10.025c12.698,1.559,21.305,11.444,30.004,5.681
					c0,0-0.023,9.245-26.867-2.005C245.569,58.719,232.691,68.921,232.691,68.921z"/>
				<path style="fill:#35220E;" d="M231.792,58.245c0,0,7.076-11.092,19.624-8.599c12.548,2.493,20.401,12.986,29.503,7.881
					c0,0-0.706,9.218-26.646-3.984C245.389,49.022,231.792,58.245,231.792,58.245z"/>
				<path style="fill:#35220E;" d="M220.823,92.757c0.892,7.758,1.387,12.391,1.663,15.164c0.416-6.387,1.01-16.33,1.061-21.761
					c0.078-8.428,4.628-12.643,4.628-12.643S218.707,74.348,220.823,92.757z"/>
			</g>
			<g>
				<g>
					<path id="XMLID_12_" style="fill:#E7B69C;" d="M244.32,97.745c0.131,2.523-1.715,4.661-4.121,4.774
						c-2.407,0.114-4.464-1.842-4.596-4.366c-0.13-2.524,1.714-4.661,4.122-4.774C242.132,93.265,244.189,95.22,244.32,97.745z"/>
					<path id="XMLID_10_" style="fill:#1E1106;" d="M244.649,96.087c0.133,2.524-1.714,4.661-4.12,4.775
						c-2.408,0.114-4.465-1.84-4.596-4.365c-0.133-2.523,1.713-4.663,4.121-4.776C242.459,91.609,244.518,93.564,244.649,96.087z"/>
					<path id="XMLID_9_" style="fill:#FFFFFF;" d="M243.089,94.92c0.047,0.914-0.699,1.692-1.662,1.736
						c-0.967,0.046-1.788-0.656-1.835-1.572c-0.047-0.913,0.699-1.691,1.662-1.735C242.219,93.301,243.041,94.006,243.089,94.92z"/>
				</g>
				<g>
					<path id="XMLID_8_" style="fill:#E7B69C;" d="M270.64,98.443c0.131,2.524-1.714,4.662-4.12,4.775
						c-2.408,0.113-4.465-1.843-4.596-4.365c-0.131-2.524,1.713-4.662,4.121-4.775C268.45,93.966,270.51,95.919,270.64,98.443z"/>
					<path id="XMLID_6_" style="fill:#1E1106;" d="M270.585,97.376c0.133,2.525-1.715,4.661-4.121,4.775
						c-2.408,0.112-4.465-1.84-4.595-4.366c-0.133-2.522,1.714-4.662,4.12-4.773C268.395,92.898,270.455,94.854,270.585,97.376z"/>
					<path id="XMLID_1_" style="fill:#FFFFFF;" d="M269.024,96.21c0.046,0.913-0.695,1.692-1.661,1.737
						c-0.967,0.046-1.789-0.659-1.836-1.574c-0.047-0.913,0.697-1.691,1.664-1.736C268.155,94.591,268.977,95.295,269.024,96.21z"/>
				</g>
			</g>
		</g>
		<g>
			<g>
				<g id="XMLID_433_">
					<path style="fill:#DDDDDD;" d="M270.552,145.943c-4.604-1.479-7.498-2.402-9.344-2.977v12.867h-5.561
						c0.085,0.279,0.097,0.588-0.015,0.92c-0.322,0.953-0.86,1.699-1.488,2.474c-0.243,0.299-0.596,0.449-0.97,0.488
						c-0.236,1.928-3.381,1.824-3.451-0.299c-0.001-0.024-0.026-0.083-0.122-0.167c-0.152-0.133-0.577-0.423-0.808-0.607
						c-0.69-0.548-1.152-1.218-1.425-2.057c-0.089-0.274-0.091-0.522-0.055-0.753h-5.105v-14.335
						c-1.657,0.469-4.423,1.319-9.291,2.858l-10.277,60.9h57.475L270.552,145.943z"/>
				</g>
				<g id="XMLID_7_">
					<path style="fill:#F6CFB7;" d="M261.366,145.956h-20.083v6.954c2.415,1.287,4.595,2.914,6.699,4.689
						c1.113,0.939,2.166,1.892,3.066,2.958h1.811c0.08-0.125,0.17-0.248,0.281-0.367c2.212-2.368,5.07-4.357,8.226-5.97V145.956z"/>
				</g>
				<path style="fill:#DDDDDD;" d="M270.552,145.943c-1.663,6.032-14.912,18.963-19.174,18.963c-4.619,0-17.596-15.228-18.46-20.551
					c-11.404,3.565-25.052,12.235-25.052,12.235l5.962,84.297c0.212,3.305,5.245,20.689,8.732,20.665l57.853-0.039
					c3.522-0.025,6.395-2.686,6.507-6.029l5.673-92.667c0.303-4.95-2.582-9.533-7.176-11.4
					C281.193,149.702,275.765,147.612,270.552,145.943z"/>
				<path style="fill:#C0BCB7;" d="M285.417,151.418c-3.657-1.486-8.217-3.25-12.758-4.781v90.154h15.405l4.529-73.973
					C292.895,157.868,290.01,153.284,285.417,151.418z"/>
				<path style="fill:#C0BCB7;" d="M219.35,258.06c1.097,2.091,2.216,3.5,3.209,3.493l57.853-0.039
					c2.544-0.018,4.732-1.422,5.803-3.454H219.35z"/>
				<polygon style="fill:#661412;" points="238.713,158.083 248.244,165.65 255.957,165.65 263.889,158.083 259.573,156.264 
					252.86,160.557 251.137,160.957 242.533,156.773 238.713,154.836 				"/>
				<g>
					<path id="XMLID_399_" style="fill:#C0BCB7;" d="M255.07,166.254c-1.759,0-1.762,2.733,0,2.733
						C256.829,168.987,256.832,166.254,255.07,166.254z"/>
					<path id="XMLID_50_" style="fill:#C0BCB7;" d="M255.07,178.805c-1.759,0-1.762,2.733,0,2.733
						C256.829,181.538,256.832,178.805,255.07,178.805z"/>
					<path id="XMLID_66_" style="fill:#C0BCB7;" d="M255.07,191.356c-1.759,0-1.762,2.733,0,2.733
						C256.829,194.09,256.832,191.356,255.07,191.356z"/>
					<path id="XMLID_72_" style="fill:#C0BCB7;" d="M255.07,203.907c-1.759,0-1.762,2.734,0,2.734
						C256.829,206.641,256.832,203.907,255.07,203.907z"/>
					<path id="XMLID_74_" style="fill:#C0BCB7;" d="M255.07,216.458c-1.759,0-1.762,2.734,0,2.734
						C256.829,219.192,256.832,216.458,255.07,216.458z"/>
					<path id="XMLID_91_" style="fill:#C0BCB7;" d="M255.07,229.01c-1.759,0-1.762,2.734,0,2.734
						C256.829,231.743,256.832,229.01,255.07,229.01z"/>
					<path id="XMLID_108_" style="fill:#C0BCB7;" d="M255.07,241.561c-1.759,0-1.762,2.733,0,2.733
						C256.829,244.295,256.832,241.561,255.07,241.561z"/>
					<path id="XMLID_61_" style="fill:#C0BCB7;" d="M251.257,214.477v38.002c0,0.85,1.322,0.852,1.322,0v-38.002
						C252.578,213.626,251.257,213.625,251.257,214.477z"/>
					<path style="fill:#C0BCB7;" d="M259.753,140.952h-0.782l-0.057,5.515l-6.665,14.126v-0.31c0-0.829-1.248-0.845-1.311-0.055
						l-7.581-13.761l-0.057-5.515h-0.782l-2.03,0.364c-4.693,0.842-7.969,5.124-7.555,9.874l1.524,17.467l6.351-11.148l10.119,4.02
						v44.357c0,0.85,1.322,0.852,1.322,0v-44.807l7.825-2.736l7.74,10.313l1.528-17.443c0.413-4.719-2.817-8.983-7.472-9.861
						L259.753,140.952z"/>
				</g>
				<rect x="265.829" y="179.378" style="fill:#C0BCB7;" width="17.785" height="4.269"/>
				<polygon style="fill:#93221C;" points="260.141,242.928 251.917,249.328 243.551,242.928 248.208,172.199 255.485,172.199 				
					"/>
				<path style="fill:#661412;" d="M254.891,174.983c0.274,0,0.528-0.069,0.766-0.165l-0.172-2.618h-7.276l-0.173,2.618
					c0.238,0.096,0.492,0.165,0.766,0.165H254.891z"/>
				<path style="fill:#93221C;" d="M254.647,174h-5.338c-0.688,0-1.302-0.434-1.531-1.083l-3.358-9.513
					c-0.373-1.056,0.411-2.164,1.531-2.164h12.053c1.12,0,1.904,1.108,1.531,2.164l-3.358,9.513
					C255.949,173.566,255.335,174,254.647,174z"/>
			</g>
			<g>
				<path style="fill:#DDDDDD;" d="M196.465,227.596l15.471-33.729l7.07-10.102l-11.14-27.175c0,0-5.892,3.157-10.992,13.271
					c-1.325,2.628-13.203,32.166-20.068,46.973c-3.095,6.676,1.78,14.311,9.139,14.311h0
					C189.884,231.145,194.824,231.177,196.465,227.596z"/>
				<g>
					<g>
						<path style="fill:#DA9F93;" d="M125.724,175.906l-0.72-14.85c0,0,2.228,0.511,3.425,4.035
							c1.197,3.523,0.279,12.348,0.897,15.263C129.326,180.353,126.655,178.32,125.724,175.906z"/>
						<path style="fill:#E4AEA0;" d="M123.375,177.142l-2.051-12.612c0,0,2.353-0.489,4.186,2.153
							c1.833,2.642,1.165,10.562,2.304,12.906C127.814,179.589,124.745,178.905,123.375,177.142z"/>
					</g>
					<path style="fill:#F6CFB7;" d="M146.742,197.645c0,0,0.229,0.119,0.514,0.272c5.147,5.16,12.03,13.2,17.455,18.064
						c7.693,6.896,10.887,11.638,17.775,16.331c3.303,2.251,9.437,0.689,12.139-2.257l0,0c3.027-3.301,2.775-8.438-0.564-11.423
						l-8.854-7.92c-8.271-5.36-9.957-6.319-18.228-11.68c-2.798-1.814-5.459-3.823-8.127-5.824
						c-2.869-2.152-7.968-4.404-9.341-8.128c-0.591-1.602-0.955-3.341-1.645-5c-0.345-0.828-0.771-1.639-1.354-2.355l-1.71-1.997
						c-2.178-2.691-4.194-5.586-6.535-8.21c-0.578-0.667-1.173-1.324-1.826-1.945c-0.323-0.313-0.672-0.611-1.061-0.891
						c-0.196-0.138-0.42-0.269-0.694-0.376c-0.206-0.023-0.291-0.122-0.614-0.042c-0.304,0.054-0.476,0.228-0.592,0.352
						c-0.826,1.087-0.624,2.115-0.462,3.022c0.226,0.908,0.619,1.73,1.073,2.502c0.967,1.539,2.099,2.803,2.809,4.368
						c0.683,1.414,1.186,2.98,1.293,4.534c-2.189,0.665-4.571,0.391-6.634-0.333c-2.21-0.776-4.145-2.023-5.49-3.809
						c-1.401-1.741-0.325-1.148-1.812-2.946c-0.74-0.897-1.601-1.731-2.627-2.377c-0.504-0.324-1.037-0.627-1.685-0.825
						c-0.331-0.078-0.705-0.181-1.201,0.002c-0.534,0.21-0.76,0.724-0.77,1.123l-0.002,0.093l0.044,0.073
						c3.611,5.965,5.434,9.088,10.253,14.217c4.96,5.071,11.308,8.597,17.206,12.532C145.903,197.072,146.32,197.36,146.742,197.645
						z"/>
				</g>
				<path style="fill:#E4AEA0;" d="M149.608,185.3c-0.031-0.074-0.068-0.145-0.096-0.22c-0.591-1.603-0.955-3.341-1.645-5.001
					c-0.345-0.827-0.771-1.639-1.354-2.355l-1.71-1.997c-2.178-2.691-4.194-5.586-6.535-8.21c-0.578-0.667-1.173-1.324-1.826-1.945
					c-0.323-0.313-0.672-0.611-1.061-0.891c-0.196-0.138-0.42-0.269-0.694-0.376c-0.206-0.023-0.291-0.122-0.614-0.042
					c-0.304,0.054-0.476,0.228-0.592,0.352c-0.826,1.087-0.624,2.115-0.462,3.022c0.226,0.908,0.619,1.73,1.073,2.502
					c0.967,1.539,2.099,2.803,2.809,4.368c0.683,1.414,1.186,2.98,1.293,4.534c-2.189,0.665-4.571,0.391-6.635-0.333
					c-0.177-0.062-0.339-0.147-0.513-0.215c3.569,2.351,8.19,4.89,10.799,4.313C144.686,182.178,147.687,183.874,149.608,185.3z"/>
				<path style="fill:#DDDDDD;" d="M195.371,229.969c2.977-4.409,2.114-10.356-1.989-13.742
					c-9.751-8.045-24.465-20.246-29.034-24.121c-1.594-1.352-4.11-0.979-5.597,0.826l-8.076,9.799
					c-1.472,1.786-1.374,4.301,0.22,5.62l29.234,24.001c4.707,3.865,11.715,2.837,15.124-2.21
					C195.293,230.085,195.332,230.027,195.371,229.969z"/>
				<g>
					<path style="fill:#35220E;" d="M137.452,146.144l-17.506,44.759c-0.389,0.992,0.134,2.106,1.146,2.441l0,0
						c0.936,0.309,1.95-0.167,2.31-1.085l17.505-44.759c0.374-0.952-0.094-2.028-1.045-2.404v0
						C138.907,144.718,137.827,145.187,137.452,146.144z"/>
					<path style="fill:#C0BCB7;" d="M136.524,146.337l-7.315,18.829c-0.141,0.361,0.049,0.766,0.417,0.888l0,0
						c0.34,0.112,0.709-0.061,0.84-0.394l7.315-18.83c0.136-0.346-0.034-0.737-0.38-0.874l0,0
						C137.054,145.818,136.661,145.989,136.524,146.337z"/>
					<polygon style="fill:#35220E;" points="120.598,196.615 123.402,192.258 121.608,190.091 119.859,191.191 119.151,196.057 
											"/>
					<path style="fill:#C0BCB7;" d="M118.945,197.964c0,0-0.002,0.771,0.514,0.109l1.138-1.458l-1.447-0.558L118.945,197.964
						L118.945,197.964z"/>
				</g>
				<path style="fill:#E4AEA0;" d="M133.941,169.874c0,0-2.57-3.27-0.945-5.38c1.625-2.109,4.632,2.301,4.632,2.301l-1.674,2.09
					L133.941,169.874z"/>
			</g>
			<g>
				<path style="fill:#E7B69C;" d="M326.465,145.074l-15.336-1.132l-0.492,6.697c-1.858-0.145-3.661-0.09-4.979,0.154
					c-1.506,0.279-3.04,0.307-4.568,0.207c-3.118-0.204-6.315-0.417-7.116-0.145c-3.032,1.03-2.215,4.186-2.215,4.186l9.829,1.497
					c0.528,0.599,1.535,1.123,1.535,1.123s0.425,0.301,1.093,0.881c0.29,0.309,0.64,0.637,1.072,0.99
					c0.372,0.364,0.772,0.773,1.195,1.241c0.05,0.055,0.113,0.104,0.167,0.158c4.05,5.255-0.002,13.374-0.002,13.374l16.214,3.059
					c0,0,1.25-8.625,1.915-11.919c0.664-3.294,3.498-12.243,3.498-12.243c-0.006-0.065-0.02-0.13-0.013-0.195
					C328.697,148.663,326.465,145.074,326.465,145.074z"/>
				<path style="fill:#DDDDDD;" d="M298.515,223.301l-15.471-33.729L281.311,174l5.803-21.705c0,0,5.892,3.157,10.992,13.271
					c1.325,2.627,13.203,32.166,20.068,46.973c3.096,6.676-1.78,14.311-9.139,14.311h0
					C305.096,226.849,300.156,226.882,298.515,223.301z"/>
				<path style="fill:#DDDDDD;" d="M305.408,228.189c-5.129-1.412-8.343-6.49-7.429-11.73c2.172-12.453,6.606-42.761,7.555-48.676
					c0.331-2.064,2.484-3.417,4.788-3.014l12.508,2.188c2.28,0.399,3.841,2.373,3.489,4.412l-7.786,48.715
					c-1.061,5.997-7.051,9.776-12.923,8.161C305.543,228.226,305.475,228.207,305.408,228.189z"/>
				<rect x="279.294" y="147.135" style="fill:#EAEAEA;" width="59.796" height="82.966"/>
				<g>
					<rect x="284.329" y="160.404" style="fill:#A5A19D;" width="16.661" height="1.647"/>
					<rect x="284.329" y="163.733" style="fill:#A5A19D;" width="16.661" height="1.647"/>
					<rect x="284.329" y="167.062" style="fill:#A5A19D;" width="16.661" height="1.647"/>
					<rect x="317.105" y="211.301" style="fill:#A5A19D;" width="16.661" height="1.647"/>
					<rect x="317.105" y="214.63" style="fill:#A5A19D;" width="16.661" height="1.647"/>
					<g>
						<rect x="284.329" y="180.28" style="fill:#A5A19D;" width="49.938" height="1.647"/>
						<rect x="284.329" y="184.093" style="fill:#A5A19D;" width="49.938" height="1.647"/>
						<rect x="284.329" y="187.905" style="fill:#A5A19D;" width="49.938" height="1.647"/>
						<rect x="284.329" y="191.718" style="fill:#A5A19D;" width="49.938" height="1.647"/>
						<rect x="284.329" y="195.53" style="fill:#A5A19D;" width="49.938" height="1.647"/>
						<rect x="284.329" y="199.343" style="fill:#A5A19D;" width="49.938" height="1.647"/>
					</g>
				</g>
				<rect x="279.294" y="224.801" style="fill:#93221C;" width="59.796" height="5.3"/>
				<rect x="279.294" y="146.52" style="fill:#93221C;" width="59.796" height="5.299"/>
				<g>
					<path style="fill:#F6CFB7;" d="M323.951,140.791c-0.986-0.02-1.717,0.762-1.738,1.805l-0.162,8.11
						c-0.021,1.043,0.675,2.048,1.661,2.068l1.05,0.021c0.986,0.02,1.874-0.954,1.895-1.997l0.162-8.11
						c0.021-1.043-0.832-1.856-1.817-1.876L323.951,140.791z"/>
					<path style="fill:#F6CFB7;" d="M318.976,139.52c-1.053-0.021-1.833,0.868-1.857,2.046l-0.183,9.16
						c-0.023,1.178,0.717,2.279,1.77,2.3l1.122,0.022c1.054,0.021,2.041-1.045,2.065-2.223l0.183-9.16
						c0.023-1.178-0.924-2.102-1.978-2.123L318.976,139.52z"/>
					<path style="fill:#F6CFB7;" d="M308.765,139.238c-1.053-0.021-1.925,0.852-1.947,1.951l-0.17,8.516
						c-0.022,1.098,0.814,2.006,1.868,2.027l1.103,0.022c1.053,0.021,1.925-0.852,1.947-1.951l0.17-8.516
						c0.022-1.098-0.814-2.006-1.868-2.027L308.765,139.238z"/>
					<path style="fill:#F6CFB7;" d="M313.872,138.872c-1.054-0.021-1.952,1.007-1.977,2.237l-0.19,9.56
						c-0.025,1.23,0.833,2.237,1.887,2.258l1.122,0.022c1.054,0.021,1.963-0.951,1.987-2.181l0.191-9.56
						c0.024-1.23-0.844-2.293-1.898-2.314L313.872,138.872z"/>
				</g>
			</g>
		</g>
	</g>
</g>
<g id="DESIGNED_BY_FREEPIK">
	<g>
		<g>
			<g>
				<g>
					<path style="fill:#464646;" d="M181.641,466.09c-0.13-0.149-0.32-0.229-0.57-0.229c-0.24,0-0.43,0.08-0.56,0.25
						c-0.14,0.17-0.2,0.42-0.2,0.76v2.39c-0.31-0.33-0.62-0.58-0.94-0.74c-0.32-0.159-0.71-0.239-1.18-0.239
						c-0.81,0-1.46,0.279-1.95,0.85c-0.5,0.56-0.75,1.351-0.75,2.37c0,0.47,0.07,0.92,0.19,1.33c0.13,0.41,0.31,0.77,0.55,1.08
						c0.24,0.3,0.53,0.54,0.86,0.7c0.33,0.159,0.69,0.25,1.08,0.25c0.29,0,0.56-0.04,0.81-0.13c0.24-0.08,0.47-0.2,0.68-0.351
						c0.22-0.16,0.43-0.36,0.65-0.61v0.16c0,0.301,0.07,0.53,0.21,0.69c0.15,0.16,0.33,0.24,0.55,0.24c0.23,0,0.41-0.08,0.56-0.24
						c0.14-0.15,0.21-0.38,0.21-0.69v-7.149C181.841,466.48,181.771,466.25,181.641,466.09z M180.011,472.7
						c-0.14,0.3-0.33,0.53-0.57,0.68c-0.23,0.15-0.49,0.22-0.78,0.22c-0.28,0-0.54-0.069-0.77-0.23c-0.24-0.16-0.43-0.39-0.56-0.7
						c-0.14-0.309-0.21-0.68-0.21-1.12c0-0.42,0.06-0.78,0.19-1.1c0.13-0.311,0.31-0.55,0.55-0.72c0.23-0.171,0.5-0.25,0.79-0.25
						c0.29,0,0.55,0.079,0.79,0.239c0.24,0.17,0.43,0.4,0.57,0.721c0.14,0.31,0.21,0.68,0.21,1.109
						C180.221,472.01,180.151,472.39,180.011,472.7z"/>
					<path style="fill:#464646;" d="M188.141,472.63c-0.16,0-0.28,0.04-0.36,0.11c-0.2,0.189-0.36,0.34-0.49,0.45
						c-0.13,0.109-0.27,0.21-0.42,0.31s-0.3,0.17-0.46,0.21c-0.16,0.05-0.34,0.07-0.53,0.07c-0.29,0-0.56-0.07-0.8-0.21
						c-0.24-0.141-0.43-0.36-0.57-0.641c-0.15-0.279-0.22-0.6-0.23-0.97h3.17c0.43,0,0.76-0.06,0.99-0.18
						c0.23-0.12,0.35-0.391,0.35-0.8c0-0.431-0.11-0.86-0.34-1.29c-0.22-0.421-0.56-0.771-1.02-1.03c-0.45-0.271-0.99-0.4-1.63-0.4
						c-0.48,0-0.93,0.07-1.32,0.23c-0.41,0.16-0.74,0.38-1.01,0.67c-0.28,0.3-0.49,0.649-0.63,1.06c-0.14,0.4-0.21,0.851-0.21,1.33
						c0,1.021,0.29,1.82,0.87,2.41c0.57,0.6,1.38,0.9,2.42,0.9c0.46,0,0.86-0.061,1.21-0.181c0.35-0.12,0.64-0.27,0.87-0.449
						c0.23-0.181,0.41-0.37,0.52-0.561c0.12-0.2,0.18-0.37,0.18-0.52c0-0.16-0.06-0.29-0.16-0.381
						C188.441,472.68,188.301,472.63,188.141,472.63z M184.761,469.8c0.26-0.28,0.59-0.42,0.99-0.42c0.42,0,0.77,0.14,1.02,0.41
						c0.26,0.28,0.41,0.69,0.45,1.25h-2.94C184.341,470.49,184.501,470.08,184.761,469.8z"/>
					<path style="fill:#464646;" d="M194.591,471.94c-0.16-0.23-0.4-0.431-0.72-0.601c-0.32-0.17-0.73-0.31-1.23-0.439
						c-0.43-0.101-0.76-0.19-1-0.261c-0.24-0.069-0.43-0.159-0.58-0.27c-0.14-0.11-0.21-0.25-0.21-0.42c0-0.181,0.1-0.34,0.29-0.46
						c0.19-0.13,0.44-0.19,0.73-0.19c0.29,0,0.51,0.05,0.68,0.141c0.16,0.1,0.31,0.22,0.43,0.38c0.15,0.189,0.28,0.33,0.4,0.43
						c0.12,0.09,0.26,0.14,0.43,0.14c0.23,0,0.4-0.059,0.53-0.18c0.12-0.11,0.18-0.27,0.18-0.45c0-0.17-0.05-0.35-0.17-0.529
						c-0.12-0.171-0.29-0.341-0.51-0.48c-0.22-0.15-0.5-0.27-0.84-0.35c-0.33-0.091-0.71-0.131-1.13-0.131
						c-0.53,0-0.99,0.08-1.37,0.261c-0.38,0.17-0.66,0.399-0.86,0.689c-0.19,0.29-0.29,0.59-0.29,0.92c0,0.36,0.11,0.67,0.32,0.92
						c0.21,0.25,0.49,0.45,0.84,0.601c0.35,0.149,0.8,0.3,1.36,0.439c0.49,0.11,0.85,0.24,1.07,0.37c0.21,0.13,0.32,0.34,0.32,0.62
						c0,0.19-0.1,0.351-0.31,0.5c-0.21,0.141-0.48,0.21-0.8,0.21c-0.4,0-0.72-0.069-0.95-0.21c-0.23-0.14-0.43-0.359-0.59-0.649
						c-0.09-0.15-0.17-0.261-0.27-0.351c-0.09-0.08-0.22-0.12-0.39-0.12c-0.19,0-0.35,0.061-0.48,0.19
						c-0.12,0.13-0.19,0.28-0.19,0.46c0,0.27,0.1,0.53,0.3,0.8c0.2,0.271,0.5,0.49,0.92,0.67c0.41,0.18,0.91,0.271,1.5,0.271
						c0.6,0,1.12-0.091,1.55-0.25c0.42-0.16,0.74-0.41,0.96-0.73c0.22-0.31,0.33-0.7,0.33-1.14
						C194.841,472.44,194.761,472.18,194.591,471.94z"/>
					<path style="fill:#464646;" d="M197.061,468.51c-0.15-0.16-0.35-0.24-0.58-0.24c-0.24,0-0.43,0.08-0.58,0.24
						c-0.15,0.16-0.23,0.4-0.23,0.721v4.64c0,0.32,0.08,0.56,0.23,0.73c0.15,0.17,0.34,0.261,0.58,0.261
						c0.23,0,0.43-0.091,0.58-0.25c0.16-0.17,0.24-0.41,0.24-0.74v-4.68C197.301,468.9,197.221,468.67,197.061,468.51z
						 M197.051,466.13c-0.16-0.14-0.35-0.2-0.56-0.2c-0.21,0-0.4,0.07-0.57,0.221c-0.16,0.149-0.25,0.34-0.25,0.569
						c0,0.25,0.09,0.45,0.25,0.58c0.16,0.141,0.35,0.21,0.57,0.21c0.22,0,0.41-0.069,0.57-0.21c0.16-0.14,0.24-0.33,0.24-0.58
						C197.301,466.46,197.211,466.26,197.051,466.13z"/>
					<path style="fill:#464646;" d="M204.241,468.57c-0.1-0.2-0.31-0.301-0.62-0.301c-0.22,0-0.4,0.07-0.54,0.23
						c-0.14,0.15-0.2,0.37-0.2,0.65v0.22c-0.29-0.38-0.61-0.65-0.94-0.83c-0.34-0.17-0.74-0.26-1.2-0.26
						c-0.38,0-0.73,0.069-1.05,0.2c-0.32,0.14-0.61,0.34-0.85,0.609c-0.25,0.271-0.44,0.601-0.57,0.99c-0.13,0.39-0.2,0.83-0.2,1.32
						c0,0.649,0.11,1.23,0.33,1.73c0.22,0.5,0.53,0.88,0.93,1.16c0.41,0.28,0.88,0.42,1.43,0.42c0.45,0,0.84-0.09,1.16-0.28
						c0.33-0.18,0.62-0.439,0.87-0.79c-0.01,0.53-0.02,0.91-0.04,1.15c-0.02,0.24-0.07,0.47-0.16,0.68
						c-0.1,0.21-0.26,0.37-0.49,0.49c-0.23,0.11-0.56,0.17-0.98,0.17c-0.2,0-0.38-0.02-0.54-0.05c-0.16-0.04-0.3-0.1-0.41-0.18
						c-0.11-0.07-0.21-0.17-0.31-0.28c-0.09-0.101-0.18-0.21-0.27-0.32c-0.18-0.21-0.38-0.31-0.62-0.31c-0.19,0-0.35,0.06-0.49,0.18
						c-0.13,0.13-0.2,0.29-0.2,0.49c0,0.26,0.12,0.51,0.36,0.76c0.23,0.25,0.57,0.45,1.01,0.61c0.44,0.149,0.94,0.229,1.5,0.229
						c0.61,0,1.12-0.06,1.53-0.18c0.41-0.13,0.74-0.311,0.99-0.57c0.25-0.25,0.44-0.569,0.55-0.96c0.12-0.39,0.18-0.85,0.18-1.39
						v-4.71C204.401,469.07,204.341,468.78,204.241,468.57z M202.591,472.63c-0.15,0.29-0.35,0.51-0.59,0.66
						c-0.23,0.14-0.49,0.21-0.76,0.21c-0.45,0-0.82-0.17-1.11-0.5c-0.29-0.34-0.43-0.84-0.43-1.49c0-0.649,0.14-1.149,0.42-1.5
						c0.28-0.359,0.65-0.529,1.11-0.529c0.48,0,0.86,0.18,1.15,0.55c0.29,0.37,0.44,0.88,0.44,1.54
						C202.821,471.99,202.741,472.34,202.591,472.63z"/>
					<path style="fill:#464646;" d="M211.181,469.98c-0.03-0.23-0.1-0.45-0.21-0.65c-0.16-0.34-0.42-0.6-0.75-0.79
						c-0.34-0.18-0.72-0.271-1.15-0.271c-0.44,0-0.83,0.091-1.16,0.261c-0.34,0.18-0.65,0.45-0.94,0.83v-0.2
						c0-0.19-0.03-0.36-0.1-0.49c-0.07-0.13-0.16-0.229-0.28-0.3c-0.11-0.07-0.24-0.101-0.39-0.101c-0.23,0-0.41,0.07-0.55,0.221
						c-0.13,0.16-0.2,0.39-0.2,0.7v4.68c0,0.32,0.08,0.56,0.23,0.73c0.15,0.17,0.34,0.261,0.57,0.261c0.24,0,0.44-0.091,0.59-0.25
						c0.15-0.16,0.23-0.41,0.23-0.74v-2.03c0-0.66,0.04-1.109,0.12-1.35c0.11-0.3,0.29-0.54,0.52-0.71
						c0.24-0.17,0.5-0.261,0.79-0.261c0.45,0,0.74,0.141,0.89,0.421c0.15,0.29,0.22,0.69,0.22,1.229v2.7c0,0.32,0.08,0.56,0.23,0.73
						c0.15,0.17,0.34,0.261,0.59,0.261c0.23,0,0.43-0.091,0.57-0.25c0.15-0.17,0.23-0.41,0.23-0.74v-3.01
						C211.231,470.5,211.211,470.21,211.181,469.98z"/>
					<path style="fill:#464646;" d="M217.511,472.63c-0.15,0-0.27,0.04-0.35,0.11c-0.21,0.189-0.37,0.34-0.5,0.45
						c-0.12,0.109-0.26,0.21-0.41,0.31c-0.15,0.1-0.31,0.17-0.47,0.21c-0.16,0.05-0.34,0.07-0.53,0.07c-0.29,0-0.55-0.07-0.79-0.21
						c-0.24-0.141-0.43-0.36-0.58-0.641c-0.14-0.279-0.22-0.6-0.22-0.97h3.17c0.42,0,0.75-0.06,0.99-0.18
						c0.23-0.12,0.35-0.391,0.35-0.8c0-0.431-0.12-0.86-0.34-1.29c-0.23-0.421-0.57-0.771-1.02-1.03c-0.45-0.271-1-0.4-1.63-0.4
						c-0.49,0-0.93,0.07-1.33,0.23c-0.4,0.16-0.74,0.38-1.01,0.67c-0.27,0.3-0.48,0.649-0.62,1.06c-0.14,0.4-0.22,0.851-0.22,1.33
						c0,1.021,0.29,1.82,0.87,2.41c0.58,0.6,1.39,0.9,2.43,0.9c0.45,0,0.86-0.061,1.21-0.181c0.35-0.12,0.64-0.27,0.87-0.449
						c0.23-0.181,0.4-0.37,0.52-0.561c0.11-0.2,0.17-0.37,0.17-0.52c0-0.16-0.05-0.29-0.15-0.381
						C217.811,472.68,217.681,472.63,217.511,472.63z M214.131,469.8c0.26-0.28,0.59-0.42,1-0.42c0.42,0,0.76,0.14,1.02,0.41
						c0.26,0.28,0.41,0.69,0.45,1.25h-2.94C213.721,470.49,213.871,470.08,214.131,469.8z"/>
					<path style="fill:#464646;" d="M224.771,466.09c-0.13-0.149-0.32-0.229-0.57-0.229c-0.24,0-0.43,0.08-0.56,0.25
						c-0.14,0.17-0.2,0.42-0.2,0.76v2.39c-0.31-0.33-0.62-0.58-0.94-0.74c-0.32-0.159-0.72-0.239-1.18-0.239
						c-0.81,0-1.46,0.279-1.96,0.85c-0.49,0.56-0.74,1.351-0.74,2.37c0,0.47,0.06,0.92,0.19,1.33c0.12,0.41,0.31,0.77,0.55,1.08
						c0.24,0.3,0.53,0.54,0.86,0.7c0.33,0.159,0.68,0.25,1.07,0.25c0.3,0,0.57-0.04,0.81-0.13c0.25-0.08,0.48-0.2,0.69-0.351
						c0.21-0.16,0.43-0.36,0.65-0.61v0.16c0,0.301,0.07,0.53,0.21,0.69c0.15,0.16,0.33,0.24,0.55,0.24c0.23,0,0.41-0.08,0.55-0.24
						c0.15-0.15,0.22-0.38,0.22-0.69v-7.149C224.971,466.48,224.901,466.25,224.771,466.09z M223.141,472.7
						c-0.14,0.3-0.33,0.53-0.57,0.68c-0.23,0.15-0.49,0.22-0.78,0.22c-0.28,0-0.54-0.069-0.78-0.23c-0.23-0.16-0.42-0.39-0.56-0.7
						c-0.13-0.309-0.2-0.68-0.2-1.12c0-0.42,0.06-0.78,0.19-1.1c0.13-0.311,0.31-0.55,0.54-0.72c0.24-0.171,0.5-0.25,0.8-0.25
						c0.28,0,0.55,0.079,0.79,0.239c0.24,0.17,0.43,0.4,0.57,0.721c0.14,0.31,0.21,0.68,0.21,1.109
						C223.351,472.01,223.281,472.39,223.141,472.7z"/>
					<path style="fill:#464646;" d="M234.531,469.77c-0.23-0.479-0.54-0.85-0.95-1.109c-0.4-0.25-0.87-0.38-1.41-0.38
						c-0.47,0-0.86,0.08-1.18,0.25c-0.32,0.17-0.63,0.41-0.93,0.729v-2.479c0-0.3-0.07-0.521-0.2-0.681
						c-0.14-0.159-0.33-0.239-0.58-0.239c-0.24,0-0.42,0.08-0.55,0.25c-0.14,0.17-0.2,0.42-0.2,0.739v7.08
						c0,0.301,0.07,0.53,0.2,0.69c0.14,0.16,0.32,0.24,0.55,0.24s0.41-0.08,0.56-0.24c0.15-0.16,0.22-0.39,0.22-0.69v-0.16
						c0.18,0.2,0.32,0.36,0.43,0.461c0.11,0.109,0.24,0.21,0.39,0.3c0.16,0.1,0.35,0.18,0.57,0.239c0.22,0.061,0.45,0.091,0.7,0.091
						c0.41,0,0.78-0.091,1.12-0.25c0.34-0.16,0.62-0.4,0.86-0.7c0.24-0.3,0.42-0.65,0.55-1.061c0.12-0.409,0.18-0.859,0.18-1.35
						C234.861,470.83,234.751,470.26,234.531,469.77z M232.791,473.07c-0.29,0.359-0.64,0.529-1.05,0.529
						c-0.48,0-0.87-0.17-1.16-0.52c-0.3-0.34-0.44-0.84-0.44-1.48c0-0.439,0.07-0.819,0.2-1.14c0.14-0.32,0.33-0.56,0.57-0.729
						c0.25-0.171,0.52-0.25,0.83-0.25c0.3,0,0.56,0.079,0.79,0.25c0.22,0.17,0.4,0.409,0.52,0.72c0.12,0.3,0.19,0.67,0.19,1.1
						C233.241,472.21,233.091,472.72,232.791,473.07z"/>
					<path style="fill:#464646;" d="M240.791,468.63c-0.06-0.11-0.15-0.2-0.26-0.26c-0.11-0.07-0.23-0.101-0.36-0.101
						c-0.17,0-0.3,0.03-0.39,0.091c-0.09,0.05-0.181,0.17-0.261,0.34c-0.09,0.17-0.18,0.41-0.279,0.71l-1.3,3.71l-1.37-3.99
						c-0.1-0.28-0.2-0.49-0.32-0.64c-0.12-0.15-0.29-0.221-0.53-0.221c-0.13,0-0.26,0.03-0.39,0.101c-0.12,0.08-0.22,0.17-0.29,0.29
						c-0.07,0.12-0.11,0.25-0.11,0.38c0,0.13,0.06,0.34,0.19,0.63l1.99,5.03l-0.15,0.359c-0.11,0.261-0.21,0.46-0.29,0.601
						c-0.09,0.14-0.18,0.229-0.29,0.29c-0.11,0.05-0.25,0.08-0.44,0.08c-0.07,0-0.16-0.011-0.27-0.03
						c-0.08-0.03-0.16-0.04-0.25-0.04c-0.22,0-0.39,0.05-0.5,0.15c-0.11,0.1-0.17,0.25-0.17,0.43c0,0.27,0.12,0.46,0.36,0.57
						c0.23,0.1,0.59,0.149,1.06,0.149c0.49,0,0.88-0.069,1.16-0.22c0.29-0.15,0.52-0.36,0.7-0.64c0.17-0.28,0.35-0.66,0.529-1.15
						l2.11-5.53c0.05-0.14,0.1-0.279,0.13-0.42c0.04-0.14,0.07-0.25,0.08-0.319C240.881,468.86,240.851,468.74,240.791,468.63z"/>
				</g>
				<g>
					<path style="fill:#464646;" d="M260.44,468.406h0.387v-0.486c0-0.508,0.063-0.91,0.191-1.211
						c0.127-0.299,0.348-0.516,0.654-0.652c0.307-0.137,0.727-0.205,1.26-0.205c0.951,0,1.422,0.23,1.422,0.697
						c0,0.148-0.051,0.277-0.15,0.385c-0.098,0.105-0.215,0.16-0.35,0.16c-0.063,0-0.174-0.012-0.328-0.037
						c-0.148-0.021-0.283-0.035-0.391-0.035c-0.291,0-0.479,0.088-0.565,0.26c-0.08,0.172-0.123,0.418-0.123,0.74v0.385h0.396
						c0.619,0,0.926,0.185,0.926,0.56c0,0.262-0.08,0.432-0.246,0.502c-0.164,0.072-0.391,0.107-0.68,0.107h-0.396v4.295
						c0,0.318-0.074,0.563-0.23,0.729c-0.15,0.172-0.346,0.254-0.59,0.254c-0.229,0-0.418-0.082-0.572-0.254
						c-0.154-0.166-0.229-0.41-0.229-0.729v-4.295h-0.445c-0.244,0-0.428-0.053-0.559-0.164c-0.131-0.105-0.197-0.25-0.197-0.424
						C259.626,468.6,259.897,468.406,260.44,468.406L260.44,468.406z"/>
					<path style="fill:#464646;" d="M265.747,472.516v1.355c0,0.326-0.084,0.574-0.234,0.736c-0.154,0.166-0.35,0.246-0.586,0.246
						c-0.238,0-0.43-0.08-0.578-0.25c-0.148-0.164-0.227-0.41-0.227-0.732v-4.516c0-0.728,0.264-1.092,0.789-1.092
						c0.27,0,0.463,0.084,0.582,0.254c0.119,0.172,0.185,0.422,0.199,0.756c0.191-0.334,0.391-0.584,0.592-0.756
						c0.209-0.17,0.477-0.254,0.818-0.254c0.344,0,0.672,0.084,0.992,0.254c0.322,0.172,0.482,0.398,0.482,0.68
						c0,0.195-0.07,0.361-0.205,0.488c-0.137,0.129-0.283,0.193-0.441,0.193c-0.063,0-0.207-0.039-0.432-0.111
						c-0.228-0.07-0.432-0.109-0.602-0.109c-0.238,0-0.434,0.064-0.584,0.188c-0.15,0.127-0.268,0.311-0.352,0.555
						c-0.08,0.246-0.137,0.539-0.17,0.877C265.761,471.615,265.747,472.029,265.747,472.516L265.747,472.516z"/>
					<path style="fill:#464646;" d="M273.881,472.63c-0.16,0-0.27,0.03-0.36,0.101c-0.199,0.189-0.359,0.35-0.489,0.449
						c-0.13,0.12-0.261,0.221-0.42,0.32c-0.15,0.09-0.301,0.17-0.46,0.21c-0.16,0.05-0.341,0.07-0.53,0.07
						c-0.29,0-0.56-0.07-0.8-0.21c-0.24-0.15-0.431-0.36-0.57-0.641c-0.15-0.279-0.22-0.609-0.22-0.97h3.17
						c0.42,0,0.75-0.06,0.979-0.18c0.23-0.13,0.351-0.391,0.351-0.79c0-0.45-0.11-0.87-0.34-1.3
						c-0.221-0.421-0.561-0.771-1.011-1.04c-0.46-0.27-1-0.4-1.64-0.4c-0.48,0-0.92,0.08-1.32,0.24
						c-0.41,0.149-0.739,0.38-1.01,0.67c-0.28,0.29-0.49,0.64-0.63,1.05c-0.14,0.41-0.21,0.86-0.21,1.34c0,1.01,0.29,1.82,0.87,2.41
						c0.569,0.6,1.38,0.89,2.43,0.89c0.45,0,0.85-0.06,1.2-0.17c0.35-0.12,0.64-0.27,0.88-0.449c0.23-0.181,0.4-0.37,0.52-0.57
						c0.11-0.19,0.171-0.36,0.171-0.51c0-0.17-0.051-0.29-0.16-0.381C274.181,472.67,274.041,472.63,273.881,472.63z M270.501,469.8
						c0.26-0.28,0.59-0.42,0.99-0.42c0.43,0,0.77,0.14,1.029,0.41c0.261,0.28,0.4,0.69,0.44,1.25h-2.93
						C270.081,470.49,270.241,470.08,270.501,469.8z"/>
					<path style="fill:#464646;" d="M280.621,472.63c-0.15,0-0.271,0.03-0.36,0.101c-0.2,0.189-0.37,0.35-0.49,0.449
						c-0.13,0.12-0.26,0.221-0.409,0.32c-0.16,0.09-0.311,0.17-0.471,0.21c-0.159,0.05-0.34,0.07-0.529,0.07
						c-0.29,0-0.561-0.07-0.801-0.21c-0.23-0.15-0.43-0.36-0.569-0.641c-0.141-0.279-0.221-0.609-0.221-0.97h3.171
						c0.42,0,0.75-0.06,0.979-0.18c0.23-0.13,0.35-0.391,0.35-0.79c0-0.45-0.109-0.87-0.34-1.3c-0.22-0.421-0.56-0.771-1.01-1.04
						c-0.46-0.27-1-0.4-1.63-0.4c-0.49,0-0.93,0.08-1.33,0.24c-0.41,0.149-0.74,0.38-1.01,0.67c-0.28,0.29-0.48,0.64-0.63,1.05
						c-0.141,0.41-0.21,0.86-0.21,1.34c0,1.01,0.29,1.82,0.859,2.41c0.58,0.6,1.391,0.89,2.431,0.89c0.46,0,0.869-0.06,1.21-0.17
						c0.35-0.12,0.64-0.27,0.88-0.449c0.23-0.181,0.399-0.37,0.51-0.57c0.12-0.19,0.18-0.36,0.18-0.51c0-0.17-0.05-0.29-0.149-0.381
						C280.921,472.67,280.791,472.63,280.621,472.63z M277.241,469.8c0.26-0.28,0.59-0.42,0.99-0.42c0.43,0,0.77,0.14,1.029,0.41
						c0.26,0.28,0.41,0.69,0.45,1.25h-2.94C276.821,470.49,276.982,470.08,277.241,469.8z"/>
					<path style="fill:#464646;" d="M287.931,469.79c-0.25-0.5-0.58-0.87-1-1.13c-0.42-0.26-0.88-0.38-1.38-0.38
						c-0.41,0-0.78,0.08-1.109,0.26c-0.33,0.18-0.65,0.45-0.95,0.83v-0.19c0-0.3-0.07-0.52-0.221-0.68
						c-0.14-0.16-0.329-0.24-0.56-0.24c-0.229,0-0.42,0.08-0.55,0.23c-0.141,0.16-0.2,0.38-0.2,0.689v7
						c0,0.351,0.05,0.62,0.14,0.811c0.11,0.18,0.301,0.27,0.61,0.27c0.521,0,0.78-0.359,0.78-1.069v-2.431
						c0.29,0.36,0.58,0.63,0.899,0.811c0.311,0.189,0.7,0.279,1.16,0.279c0.391,0,0.74-0.069,1.08-0.22
						c0.34-0.16,0.63-0.37,0.87-0.66c0.25-0.279,0.44-0.63,0.58-1.05c0.14-0.41,0.21-0.88,0.21-1.37
						C288.291,470.87,288.171,470.29,287.931,469.79z M286.461,472.66c-0.14,0.32-0.32,0.55-0.55,0.71
						c-0.23,0.149-0.48,0.23-0.75,0.23c-0.46,0-0.83-0.18-1.13-0.54c-0.311-0.35-0.471-0.859-0.471-1.5
						c0-0.68,0.16-1.199,0.471-1.56c0.3-0.35,0.68-0.53,1.13-0.53c0.28,0,0.54,0.09,0.77,0.25c0.23,0.17,0.41,0.4,0.54,0.71
						c0.13,0.301,0.2,0.67,0.2,1.101C286.671,471.97,286.601,472.35,286.461,472.66z"/>
					<path style="fill:#464646;" d="M290.501,468.51c-0.16-0.17-0.35-0.25-0.59-0.25c-0.24,0-0.43,0.08-0.58,0.25
						c-0.15,0.16-0.22,0.4-0.22,0.721v4.64c0,0.32,0.069,0.56,0.22,0.73c0.15,0.17,0.34,0.25,0.58,0.25c0.24,0,0.43-0.08,0.59-0.25
						c0.15-0.159,0.23-0.409,0.23-0.73v-4.69C290.732,468.9,290.651,468.67,290.501,468.51z M290.482,466.12
						c-0.16-0.13-0.341-0.2-0.551-0.2c-0.22,0-0.41,0.08-0.58,0.22c-0.159,0.15-0.239,0.341-0.239,0.57c0,0.26,0.08,0.45,0.239,0.59
						c0.16,0.141,0.351,0.21,0.58,0.21c0.21,0,0.4-0.069,0.56-0.21c0.16-0.14,0.24-0.34,0.24-0.59S290.651,466.26,290.482,466.12z"
						/>
					<path style="fill:#464646;" d="M295.954,474.115l-1.428-2.354l-0.881,0.83v1.291c0,0.311-0.082,0.551-0.248,0.717
						c-0.16,0.172-0.353,0.254-0.566,0.254c-0.248,0-0.445-0.08-0.588-0.25c-0.141-0.164-0.215-0.41-0.215-0.732v-6.916
						c0-0.357,0.072-0.631,0.207-0.82c0.141-0.189,0.342-0.283,0.596-0.283c0.25,0,0.445,0.086,0.594,0.258
						c0.146,0.17,0.221,0.422,0.221,0.752v3.932l1.822-1.914c0.227-0.234,0.396-0.4,0.518-0.486
						c0.119-0.086,0.262-0.129,0.432-0.129c0.203,0,0.371,0.064,0.51,0.193c0.131,0.127,0.199,0.291,0.199,0.483
						c0,0.236-0.221,0.555-0.658,0.951l-0.861,0.789l1.662,2.613c0.121,0.197,0.211,0.34,0.264,0.441
						c0.053,0.1,0.082,0.201,0.082,0.289c0,0.258-0.072,0.459-0.213,0.609c-0.141,0.148-0.328,0.221-0.553,0.221
						c-0.199,0-0.354-0.049-0.459-0.158C296.282,474.586,296.136,474.393,295.954,474.115L295.954,474.115z"/>
					<path style="fill:#464646;" d="M299.476,474.853c-0.244,0-0.455-0.078-0.633-0.236c-0.178-0.156-0.268-0.379-0.268-0.666
						c0-0.24,0.086-0.449,0.256-0.621c0.172-0.176,0.379-0.264,0.629-0.264s0.461,0.088,0.641,0.258
						c0.174,0.172,0.264,0.383,0.264,0.627c0,0.283-0.09,0.504-0.264,0.662C299.921,474.775,299.712,474.853,299.476,474.853
						L299.476,474.853z"/>
					<path style="fill:#464646;" d="M307.538,472.848c0,0.201-0.06,0.418-0.182,0.646c-0.121,0.232-0.307,0.449-0.555,0.656
						c-0.246,0.207-0.557,0.377-0.934,0.502c-0.377,0.127-0.801,0.191-1.27,0.191c-1.004,0-1.787-0.293-2.35-0.875
						c-0.559-0.584-0.84-1.369-0.84-2.35c0-0.668,0.127-1.254,0.387-1.766c0.254-0.508,0.627-0.904,1.113-1.184
						s1.072-0.418,1.746-0.418c0.422,0,0.805,0.06,1.158,0.183c0.35,0.123,0.645,0.283,0.891,0.475
						c0.242,0.197,0.428,0.402,0.555,0.621c0.131,0.219,0.193,0.424,0.193,0.615c0,0.193-0.07,0.357-0.215,0.492
						c-0.147,0.135-0.322,0.203-0.523,0.203c-0.137,0-0.248-0.035-0.338-0.103c-0.09-0.07-0.191-0.182-0.299-0.338
						c-0.199-0.301-0.404-0.527-0.623-0.676c-0.215-0.152-0.488-0.227-0.822-0.227c-0.475,0-0.863,0.188-1.158,0.561
						c-0.291,0.373-0.44,0.889-0.44,1.535c0,0.305,0.039,0.586,0.115,0.842c0.072,0.254,0.182,0.473,0.324,0.652
						c0.145,0.18,0.316,0.316,0.517,0.408c0.201,0.098,0.426,0.143,0.664,0.143c0.326,0,0.603-0.076,0.836-0.227
						c0.234-0.15,0.44-0.379,0.615-0.688c0.1-0.184,0.205-0.324,0.318-0.428c0.115-0.102,0.256-0.156,0.424-0.156
						c0.197,0,0.361,0.076,0.49,0.227C307.472,472.518,307.538,472.68,307.538,472.848L307.538,472.848z"/>
					<path style="fill:#464646;" d="M314.311,470.22c-0.149-0.399-0.359-0.75-0.649-1.04c-0.29-0.29-0.63-0.52-1.03-0.68
						c-0.399-0.16-0.84-0.24-1.34-0.24c-0.48,0-0.92,0.08-1.32,0.24c-0.399,0.15-0.739,0.38-1.02,0.67
						c-0.28,0.28-0.5,0.63-0.65,1.04c-0.149,0.41-0.22,0.86-0.22,1.35c0,0.48,0.07,0.931,0.22,1.33c0.15,0.4,0.37,0.75,0.65,1.051
						c0.29,0.29,0.63,0.52,1.02,0.68c0.391,0.16,0.83,0.24,1.32,0.24c0.5,0,0.941-0.08,1.34-0.24c0.4-0.16,0.74-0.38,1.021-0.67
						c0.29-0.3,0.5-0.65,0.659-1.05c0.15-0.41,0.221-0.86,0.221-1.341C314.531,471.07,314.461,470.63,314.311,470.22z
						 M312.471,473.09c-0.29,0.37-0.68,0.561-1.18,0.561c-0.32,0-0.6-0.091-0.84-0.25c-0.24-0.17-0.42-0.41-0.55-0.73
						c-0.131-0.32-0.2-0.689-0.2-1.11c0-0.43,0.069-0.8,0.2-1.119c0.13-0.32,0.31-0.57,0.56-0.73c0.24-0.17,0.521-0.25,0.83-0.25
						c0.5,0,0.89,0.18,1.18,0.56c0.29,0.36,0.431,0.881,0.431,1.54C312.901,472.21,312.761,472.72,312.471,473.09z"/>
					<path style="fill:#464646;" d="M320.714,471.68v2.154c0,0.342-0.076,0.594-0.23,0.766c-0.156,0.172-0.357,0.256-0.611,0.256
						c-0.246,0-0.445-0.084-0.594-0.256c-0.154-0.172-0.232-0.424-0.232-0.766v-2.582c0-0.408-0.014-0.727-0.041-0.953
						c-0.027-0.221-0.105-0.41-0.227-0.553c-0.123-0.146-0.318-0.219-0.582-0.219c-0.531,0-0.879,0.182-1.047,0.551
						c-0.168,0.359-0.254,0.883-0.254,1.566v2.19c0,0.336-0.076,0.59-0.226,0.764c-0.154,0.172-0.354,0.258-0.602,0.258
						c-0.248,0-0.449-0.086-0.605-0.258c-0.156-0.174-0.234-0.428-0.234-0.764v-4.637c0-0.307,0.068-0.539,0.209-0.695
						c0.143-0.16,0.328-0.238,0.557-0.238c0.223,0,0.406,0.076,0.557,0.223c0.148,0.148,0.221,0.354,0.221,0.615v0.152
						c0.283-0.334,0.586-0.582,0.904-0.738c0.322-0.162,0.676-0.24,1.07-0.24c0.406,0,0.756,0.082,1.049,0.242
						c0.293,0.164,0.533,0.41,0.725,0.736c0.275-0.33,0.568-0.576,0.881-0.738c0.313-0.16,0.658-0.24,1.039-0.24
						c0.441,0,0.826,0.088,1.146,0.262c0.318,0.174,0.559,0.424,0.717,0.746c0.139,0.297,0.207,0.756,0.207,1.387v3.164
						c0,0.342-0.076,0.594-0.23,0.766s-0.359,0.256-0.611,0.256c-0.246,0-0.447-0.086-0.603-0.258
						c-0.156-0.174-0.234-0.428-0.234-0.764v-2.727c0-0.35-0.016-0.627-0.043-0.836c-0.029-0.211-0.111-0.389-0.24-0.529
						c-0.133-0.143-0.332-0.215-0.596-0.215c-0.213,0-0.416,0.066-0.609,0.191c-0.191,0.125-0.342,0.299-0.449,0.508
						C320.774,470.502,320.714,470.986,320.714,471.68L320.714,471.68z"/>
				</g>
				<g>
					<path style="fill:#464646;" d="M245.274,471.168c-0.002-0.004-0.002-0.006-0.002-0.012
						C245.272,471.162,245.272,471.164,245.274,471.168z"/>
					<path style="fill:#464646;" d="M245.355,471.685C245.356,471.685,245.356,471.685,245.355,471.685
						c-0.029-0.146-0.054-0.293-0.073-0.438C245.302,471.393,245.326,471.541,245.355,471.685z"/>
					<path style="fill:#464646;" d="M245.892,473.19c-0.004-0.006-0.006-0.014-0.011-0.02
						C245.886,473.176,245.888,473.184,245.892,473.19z"/>
					<path style="fill:#464646;" d="M245.841,473.09c-0.014-0.027-0.027-0.057-0.041-0.084
						C245.813,473.035,245.827,473.063,245.841,473.09z"/>
					<path style="fill:#464646;" d="M245.507,472.266c0.078,0.25,0.174,0.492,0.285,0.723c-0.113-0.234-0.207-0.479-0.283-0.723
						C245.507,472.266,245.507,472.266,245.507,472.266z"/>
					<path style="fill:#464646;" d="M251.546,464.957c0.314,0,0.545,0.025,0.811,0.07l0.074-0.477c0,0-0.73-0.225-1.693-0.147
						l-0.076-0.26c0.299-0.063,0.523-0.328,0.523-0.647c0-0.363-0.295-0.658-0.66-0.658c-0.365,0-0.66,0.295-0.66,0.658
						c0,0.318,0.225,0.584,0.523,0.647l0.084,0.289c-1.021,0.141-1.835,0.539-1.835,0.539l0.144,0.441
						c0.618-0.207,1.154-0.332,1.641-0.385C250.897,464.98,251.255,464.957,251.546,464.957z"/>
					<path style="fill:#464646;" d="M245.88,467.369l0.004-0.006c0.023-0.029,0.047-0.059,0.07-0.088l-0.195-0.141l-0.305-0.223
						c-0.018,0.023-0.497,0.465-0.877,1.279c-0.016-0.025-0.034-0.051-0.055-0.074c-0.114-0.125-0.273-0.188-0.475-0.184
						c-0.003,0-0.006,0-0.01,0c-0.125,0-0.211-0.043-0.267-0.092c0.056-0.072,0.09-0.16,0.09-0.26c0-0.229-0.188-0.418-0.419-0.418
						c-0.23,0-0.418,0.189-0.418,0.418c0,0.233,0.188,0.418,0.418,0.418c0.037,0,0.07-0.006,0.104-0.012
						c0.103,0.113,0.267,0.213,0.505,0.209c0.123-0.002,0.213,0.029,0.273,0.096c0.07,0.076,0.093,0.185,0.1,0.267
						c0,0,0,0.004-0.002,0.004c-0.271,0.742-0.193,1.668-0.193,1.668l0.66,0.027c0.014-0.338,0.063-0.928,0.232-1.395
						C245.45,467.959,245.862,467.393,245.88,467.369z"/>
					<path style="fill:#464646;" d="M257.296,465.51c-0.23,0-0.418,0.188-0.418,0.418c0,0.037,0.006,0.07,0.016,0.104
						c-0.115,0.103-0.215,0.267-0.211,0.506c0.002,0.123-0.029,0.213-0.098,0.273c-0.053,0.047-0.119,0.072-0.184,0.088
						c-0.492-0.689-1.098-1.109-1.098-1.109l-0.475,0.508c0.359,0.326,0.725,0.734,1.08,1.244c0.246,0.352,0.5,0.807,0.711,1.26
						l0.639-0.305c0,0-0.291-0.723-0.703-1.369c0.072-0.025,0.145-0.065,0.207-0.121c0.125-0.111,0.188-0.271,0.184-0.473
						c-0.002-0.131,0.041-0.219,0.092-0.275c0.072,0.053,0.162,0.088,0.258,0.088c0.232,0,0.42-0.188,0.42-0.418
						C257.716,465.697,257.528,465.51,257.296,465.51z"/>
					<path style="fill:#464646;" d="M255.636,471.262c-0.881,0.428-2.33,0.996-4.238,1.262c-0.75,0.104-1.475,0.143-2.143,0.143
						c-0.869,0-1.637-0.064-2.227-0.139c-0.672-0.086-1.199-0.189-1.52-0.262c0.076,0.244,0.17,0.488,0.283,0.723
						c0.002,0.008,0.005,0.014,0.008,0.018c0.014,0.027,0.027,0.057,0.041,0.084c0.014,0.027,0.027,0.055,0.04,0.08
						c0.005,0.006,0.007,0.014,0.011,0.02c0.19,0.357,0.416,0.685,0.676,0.969c0.9,0.984,1.816,1.141,1.825,1.141l0.015,0.002
						l0.014,0.006c0.008,0.002,0.82,0.266,2.057,0.266c1.215,0,2.408-0.246,3.547-0.73c0.842-0.43,1.639-1.084,2.033-1.668
						c0.305-0.451,0.525-0.934,0.656-1.434c0.068-0.266,0.125-0.693,0.092-1.141C256.558,470.766,256.165,471.004,255.636,471.262z"
						/>
					<path style="fill:#464646;" d="M255.621,467.74c-1.25-1.79-2.601-2.25-3.3-2.36c-0.261-0.05-0.471-0.07-0.78-0.07
						c-0.271,0-0.62,0.021-1.08,0.07c-0.47,0.05-0.99,0.17-1.59,0.37c-0.84,0.29-1.601,0.73-2.2,1.28l-0.02,0.02
						c-0.091,0.08-0.271,0.26-0.49,0.53c-0.021,0.04-0.41,0.58-0.71,1.41c-0.22,0.62-0.21,1.52-0.21,1.529v0.011
						c0,0.21,0.01,0.42,0.029,0.63c0,0,0,0,0,0.01c0.011,0.03,0.011,0.05,0.011,0.08c0.02,0.14,0.05,0.29,0.08,0.44
						c0.43,0.109,3.04,0.72,5.96,0.31c1.83-0.25,3.22-0.79,4.06-1.21c0.71-0.33,1.16-0.64,1.33-0.771
						C256.541,469.38,256.061,468.37,255.621,467.74z M248.681,470.64c-0.97,0-1.76-0.79-1.76-1.76c0-0.97,0.79-1.76,1.76-1.76
						c0.971,0,1.761,0.79,1.761,1.76C250.441,469.85,249.651,470.64,248.681,470.64z M253.831,469.34c-0.6,0-1.09-0.49-1.09-1.09
						s0.49-1.09,1.09-1.09c0.6,0,1.09,0.49,1.09,1.09S254.431,469.34,253.831,469.34z"/>
				</g>
			</g>
		</g>
	</g>
</g>
</svg>
