<svg class="fl-footer-info-logo-img" tabindex="0" aria-label="Findlaw logo" xmlns="http://www.w3.org/2000/svg" xmlns:xlink="http://www.w3.org/1999/xlink" version="1.1" x="0px" y="0px" viewBox="0 0 177 51" style="enable-background:new 0 0 200 63;" xml:space="preserve"><style type="text/css">
                            .st0{fill:#fa6400;}
                            </style><g><path class="st0" d="M1,10.6h23v4.1H5.8v12.5h17v4.2h-17v15.2H1V10.6z"/><path class="st0" d="M29.9,10.7c1.9,0,3.1,1.5,3.1,3.1c0,1.7-1.2,3.1-3.1,3.1c-1.9,0-3.1-1.5-3.1-3.1   C26.7,12.1,27.9,10.7,29.9,10.7z M27.6,46.6V20.8h4.6v25.8H27.6z"/><path class="st0" d="M53.8,46.6V29.7c0-3.5-1.7-5.5-5.2-5.5c-4.1,0-7.1,3.2-7.1,8.5v13.8h-4.6V20.8h4.5v5.3   c1.5-3.3,4.3-5.8,8.8-5.8c5.8,0,8.3,3.3,8.3,8.8v17.6H53.8z"/><path class="st0" d="M71.9,20.2c4.2,0,7,2.2,8.5,5.5V10.6h4.6v36h-4.5v-4.9c-1.6,3.3-4.5,5.5-8.8,5.5c-7.1,0-10.2-5.9-10.2-13.5   C61.6,26.2,64.7,20.2,71.9,20.2z M73.1,43.4c5,0,7.3-4.4,7.3-9.7c0-5.3-2.4-9.7-7.3-9.7c-4.9,0-6.8,4.1-6.8,9.7   C66.3,39.3,68.2,43.4,73.1,43.4z"/><path class="st0" d="M89.3,10.6H94v31.9h17.3v4.1h-22V10.6z"/><path class="st0" d="M130.5,46.6v-4.4c-1.8,3.1-4.9,4.9-9,4.9c-5.1,0-8-3-8-7.6c0-5.5,3.7-8,9.1-8h7.8v-2.4c0-3.5-2-5-6.2-5   c-2.9,0-5.6,0.6-8.1,1.8l-0.8-3.7c2.9-1.4,6.2-2.1,9.5-2.1c6.7,0,10.2,2.8,10.2,8.6v17.8H130.5z M130.3,34.9h-7.1   c-3.6,0-5.2,1.6-5.2,4.6c0,2.9,1.8,4.4,4.9,4.4c4.3,0,7.5-3.3,7.5-7.3V34.9z"/><path class="st0" d="M163.6,41.3l5.4-20.6h4.5l-7.6,25.8h-4.6l-6.2-21.5l-6.3,21.5h-4.6l-7.6-25.8h4.5l5.5,20.6l5.9-20.6h5   L163.6,41.3z"/><path class="st0" d="M173.8,39.7c2.2,0,3.6,1.6,3.6,3.5c0,1.9-1.4,3.5-3.6,3.5c-2.2,0-3.6-1.6-3.6-3.5   C170.2,41.3,171.6,39.7,173.8,39.7z M173.8,46.3c1.9,0,3.1-1.4,3.1-3.1c0-1.7-1.2-3.1-3.1-3.1c-1.8,0-3,1.4-3,3.1   C170.7,45,172,46.3,173.8,46.3z M174.5,43.5l1.1,1.4h-0.8l-1-1.4h-0.4v1.4h-0.7v-3.5h1.3c0.7,0,1.2,0.4,1.2,1   C175.2,42.9,174.9,43.3,174.5,43.5z M173.9,41.9h-0.6V43h0.6c0.4,0,0.6-0.2,0.6-0.6C174.5,42.1,174.3,41.9,173.9,41.9z"/></g></svg>