<svg width="43" height="34" viewBox="0 0 43 34" fill="none" xmlns="http://www.w3.org/2000/svg">
<path d="M37 2.6892C37 1.204 35.796 0 34.3108 0H2.6892C1.204 0 0 1.204 0 2.6892V25.3108C0 26.796 1.204 28 2.6892 28H34.3108C35.796 28 37 26.796 37 25.3108V2.6892ZM34.1538 22.5108C34.1538 23.996 32.9498 25.2 31.4646 25.2H5.53536C4.05015 25.2 2.84615 23.996 2.84615 22.5108V5.4892C2.84615 4.00399 4.05015 2.8 5.53536 2.8H31.4646C32.9498 2.8 34.1538 4.004 34.1538 5.4892V22.5108Z" fill="#8F9397"/>
<path d="M41.56 7C40.7647 7 40.12 7.64471 40.12 8.44V26.8138C40.12 29.213 38.1751 31.1579 35.7759 31.1579H8.42105C7.63623 31.1579 7 31.7941 7 32.5789C7 33.3638 7.63623 34 8.42105 34H38.6559C41.0551 34 43 32.0551 43 29.6559V8.44C43 7.64471 42.3553 7 41.56 7Z" fill="#8F9397"/>
<path d="M19 21.1327C22.584 21.1327 25.5 17.9385 25.5 14.0122C25.5 10.0859 22.584 6.89164 19 6.89164C15.416 6.89164 12.5 10.0858 12.5 14.0122C12.5 17.9385 15.416 21.1327 19 21.1327ZM19 9.80073C20.9912 9.80073 22.6111 11.69 22.6111 14.0122C22.6111 16.3344 20.9912 18.2236 19 18.2236C17.0088 18.2236 15.3889 16.3344 15.3889 14.0122C15.3889 11.69 17.0088 9.80073 19 9.80073ZM6 6H8.88889V22H6V6ZM29.1111 6H32V22H29.1111V6Z" fill="#8F9397"/>
</svg>
