<svg width="30" height="30" viewBox="0 0 30 30" fill="none" xmlns="http://www.w3.org/2000/svg">
<path d="M24.9173 3.66683H22.084V2.25016C22.084 1.87444 21.9347 1.5141 21.6691 1.24843C21.4034 0.982752 21.043 0.833496 20.6673 0.833496C20.2916 0.833496 19.9313 0.982752 19.6656 1.24843C19.3999 1.5141 19.2507 1.87444 19.2507 2.25016V3.66683H10.7507V2.25016C10.7507 1.87444 10.6014 1.5141 10.3357 1.24843C10.07 0.982752 9.70971 0.833496 9.33398 0.833496C8.95826 0.833496 8.59793 0.982752 8.33225 1.24843C8.06657 1.5141 7.91732 1.87444 7.91732 2.25016V3.66683H5.08398C3.95681 3.66683 2.87581 4.1146 2.07878 4.91163C1.28175 5.70866 0.833984 6.78966 0.833984 7.91683V24.9168C0.833984 26.044 1.28175 27.125 2.07878 27.922C2.87581 28.7191 3.95681 29.1668 5.08398 29.1668H24.9173C26.0445 29.1668 27.1255 28.7191 27.9225 27.922C28.7196 27.125 29.1673 26.044 29.1673 24.9168V7.91683C29.1673 6.78966 28.7196 5.70866 27.9225 4.91163C27.1255 4.1146 26.0445 3.66683 24.9173 3.66683ZM26.334 24.9168C26.334 25.2926 26.1847 25.6529 25.9191 25.9186C25.6534 26.1842 25.293 26.3335 24.9173 26.3335H5.08398C4.70826 26.3335 4.34793 26.1842 4.08225 25.9186C3.81657 25.6529 3.66732 25.2926 3.66732 24.9168V15.0002H26.334V24.9168ZM26.334 12.1668H3.66732V7.91683C3.66732 7.54111 3.81657 7.18077 4.08225 6.9151C4.34793 6.64942 4.70826 6.50016 5.08398 6.50016H7.91732V7.91683C7.91732 8.29255 8.06657 8.65289 8.33225 8.91856C8.59793 9.18424 8.95826 9.3335 9.33398 9.3335C9.70971 9.3335 10.07 9.18424 10.3357 8.91856C10.6014 8.65289 10.7507 8.29255 10.7507 7.91683V6.50016H19.2507V7.91683C19.2507 8.29255 19.3999 8.65289 19.6656 8.91856C19.9313 9.18424 20.2916 9.3335 20.6673 9.3335C21.043 9.3335 21.4034 9.18424 21.6691 8.91856C21.9347 8.65289 22.084 8.29255 22.084 7.91683V6.50016H24.9173C25.293 6.50016 25.6534 6.64942 25.9191 6.9151C26.1847 7.18077 26.334 7.54111 26.334 7.91683V12.1668Z" fill="black"/>
</svg>
